<?xml version="1.0" standalone="no"?>
<!DOCTYPE svg PUBLIC "-//W3C//DTD SVG 20010904//EN"
 "http://www.w3.org/TR/2001/REC-SVG-20010904/DTD/svg10.dtd">
<svg version="1.0" xmlns="http://www.w3.org/2000/svg"
 width="500.000000pt" height="500.000000pt" viewBox="0 0 500.000000 500.000000"
 preserveAspectRatio="xMidYMid meet">
<metadata>
Created by potrace 1.14, written by Peter Selinger 2001-2017
</metadata>
<g transform="translate(0.000000,500.000000) scale(0.100000,-0.100000)"
fill="#000000" stroke="none">
<path d="M2347 3805 c-2 -5 -3 -215 -3 -465 l1 -455 155 -1 156 -1 0 464 c0
255 -3 463 -6 464 -37 7 -301 2 -303 -6z"/>
<path d="M1786 3214 l-296 -296 0 -419 0 -418 296 -296 296 -295 420 0 420 0
294 294 294 294 0 420 0 420 -295 296 -296 296 -84 0 -85 0 0 -130 0 -130 30
0 c25 0 56 -27 204 -175 171 -170 195 -188 210 -149 3 8 12 14 21 14 16 0 85
-63 85 -77 0 -5 -11 -20 -25 -33 -24 -23 -25 -27 -25 -159 0 -133 0 -135 27
-163 l27 -28 -27 -28 c-26 -27 -27 -32 -27 -146 0 -111 1 -120 25 -148 14 -16
25 -33 25 -38 0 -5 -19 -25 -42 -45 l-42 -36 -29 31 -28 30 -175 -175 -174
-175 -310 0 -310 0 -173 173 -173 174 -35 -29 -34 -29 -37 41 c-21 23 -38 44
-38 46 0 3 11 17 25 32 24 25 25 33 25 146 0 116 -1 121 -26 147 l-27 28 27
31 c25 31 26 35 26 164 0 128 -1 133 -25 156 -14 13 -25 27 -25 32 0 5 16 25
36 45 32 31 39 34 60 24 13 -6 24 -15 24 -21 0 -25 31 1 195 165 149 150 179
175 205 175 l30 0 0 130 0 130 -84 0 -83 0 -297 -296z"/>
<path d="M788 1321 c-2 -14 -3 -125 -3 -246 l0 -220 190 -3 190 -2 -1 45 c-1
25 -2 50 -3 55 -1 6 -45 10 -111 10 l-110 0 -2 192 -3 192 -72 2 c-70 1 -71 1
-75 -25z"/>
<path d="M1334 1330 c-92 -47 -135 -129 -130 -253 3 -96 37 -156 110 -202 44
-27 58 -30 126 -29 65 0 84 4 124 28 82 48 123 139 113 253 -9 93 -42 148
-122 198 -46 29 -168 31 -221 5z m136 -90 c31 -17 43 -50 47 -129 6 -118 -17
-161 -86 -161 -45 0 -63 34 -67 128 -4 87 8 135 39 157 25 18 41 19 67 5z"/>
<path d="M1736 1341 c-1 -3 -2 -114 -2 -246 l1 -240 123 -3 c136 -3 178 5 239
44 112 73 129 271 33 372 -56 57 -116 75 -268 77 -67 1 -124 -1 -126 -4z m261
-137 c26 -24 33 -40 34 -70 2 -69 -3 -98 -19 -126 -17 -29 -28 -36 -80 -48
-44 -11 -48 2 -46 125 3 172 -1 155 41 152 25 -1 47 -12 70 -33z"/>
<path d="M2255 1341 c-3 -2 -5 -114 -5 -248 l0 -243 194 0 c123 0 196 4 198
10 2 6 2 31 0 55 l-4 45 -118 0 -117 0 1 42 1 42 65 2 c36 1 68 2 73 3 4 0 7
24 7 51 0 55 8 51 -95 54 l-49 1 -4 38 c-4 42 -15 38 126 41 48 0 92 4 98 8 9
6 12 68 5 98 -1 6 -370 7 -376 1z"/>
<path d="M2814 1339 c-4 -7 77 -261 138 -431 l21 -58 72 0 c60 0 74 3 80 18
31 77 154 459 151 468 -5 12 -110 13 -122 1 -6 -5 -57 -175 -69 -227 -16 -70
-24 -83 -31 -47 -6 30 -84 270 -89 276 -10 9 -145 9 -151 0z"/>
<path d="M3335 1342 c-3 -3 -5 -115 -5 -249 l0 -243 75 0 c71 0 75 1 76 23 0
12 2 51 2 87 l2 65 65 1 c121 2 173 29 203 104 30 73 -2 150 -77 189 -44 22
-60 25 -192 26 -79 1 -146 -1 -149 -3z m243 -111 c7 0 17 -12 24 -26 8 -19 8
-29 -4 -48 -13 -19 -24 -23 -59 -21 -24 1 -47 2 -51 3 -14 2 -9 89 5 94 10 3
31 3 85 -2z"/>
<path d="M3821 1340 c-4 -3 -7 -113 -6 -245 l0 -240 63 -3 c54 -3 62 -1 63 15
0 10 1 68 1 130 l0 112 23 -27 c12 -15 47 -62 78 -104 98 -138 88 -129 154
-126 l58 3 1 235 c0 129 -1 240 -3 246 -2 7 -27 11 -61 10 l-57 -1 -3 -110
c-1 -61 -4 -114 -5 -119 -2 -5 -21 18 -42 50 -22 33 -42 61 -45 64 -3 3 -24
31 -47 62 l-43 57 -61 -2 c-33 -1 -64 -4 -68 -7z"/>
</g>
</svg>
